<svg xmlns="http://www.w3.org/2000/svg" width="59.462" height="59.412">
    <g data-name="Group 16">
        <g data-name="Group 15">
            <path data-name="Path 34" d="M55.844 0h-20.2a3.622 3.622 0 00-3.618 3.618v13.8a3.622 3.622 0 003.618 3.618h.7v3.17a1.468 1.468 0 002.508 1.039l4.211-4.211h12.78a3.622 3.622 0 003.618-3.618V3.618A3.623 3.623 0 0055.844 0zm0 19.166h-12.8a1.8 1.8 0 00-1.278.529l-3.548 3.548v-2.27a1.81 1.81 0 00-1.808-1.808h-.76a1.753 1.753 0 01-1.751-1.751V3.618a1.753 1.753 0 011.751-1.751h20.2a1.753 1.753 0 011.751 1.751v13.8a1.753 1.753 0 01-1.757 1.748z" fill="#fff"/>
        </g>
    </g>
    <g data-name="Group 18">
        <g data-name="Group 17">
            <path data-name="Path 35" d="M46.734 14.39a1.179 1.179 0 00-.875-.369 1.22 1.22 0 00-.882.361 1.211 1.211 0 000 1.743 1.2 1.2 0 00.883.369 1.178 1.178 0 00.875-.369 1.221 1.221 0 000-1.735z" fill="#fff"/>
        </g>
    </g>
    <g data-name="Group 20">
        <g data-name="Group 19">
            <path data-name="Path 36" d="M48.557 5.412a3.852 3.852 0 00-2.474-.755 3.554 3.554 0 00-2.329.691 1.93 1.93 0 00-.835 1.462.821.821 0 00.3.675 1.025 1.025 0 00.664.241.679.679 0 00.48-.178 1.447 1.447 0 00.3-.392 1.015 1.015 0 01.464-.393 1.984 1.984 0 01.9-.178 1.792 1.792 0 011.04.277.912.912 0 01.4.8 1.139 1.139 0 01-.177.593 2.276 2.276 0 01-.321.435 6.258 6.258 0 01-.514.427q-.37.285-.418.332a3.007 3.007 0 00-1.076 2.4 1.324 1.324 0 00.193.839.885.885 0 00.691.221q.947 0 .948-.658a5.25 5.25 0 01.04-.763 1.661 1.661 0 01.241-.578 2.682 2.682 0 01.62-.667 3.839 3.839 0 001.813-2.939 2.328 2.328 0 00-.95-1.892z" fill="#fff"/>
        </g>
    </g>
    <g data-name="Group 23">
        <g data-name="Group 22">
            <g data-name="Group 21" fill="#fff">
                <path data-name="Path 37" d="M32.2 46.502l-4.335-.849a3.764 3.764 0 01-1.392-.568.907.907 0 00-.094-.063 2.447 2.447 0 01-1.084-1.959v-1.8a9.805 9.805 0 001.658-1.639 3.925 3.925 0 003.841-3.787 2.54 2.54 0 001.735-2.4v-4.774a2.538 2.538 0 00-1.644-2.371.934.934 0 00.558-1.111 16.663 16.663 0 00-4.265-7.8 11.342 11.342 0 00-7.364-3.466 11.936 11.936 0 00-7.74 2.819 12.726 12.726 0 00-2.664 3.215l-.006.011-.005.008A11.254 11.254 0 007.7 26.331a2.54 2.54 0 00-1.546 2.332v4.765a2.539 2.539 0 002.537 2.535h1.224a9.75 9.75 0 003.81 5.543v1.557a2.448 2.448 0 01-1.084 1.959.931.931 0 00-.093.063 3.763 3.763 0 01-1.392.569l-4.335.849C2.8 47.289 0 50.298 0 53.82v4.659a.934.934 0 00.934.934h37.151a.934.934 0 00.934-.934V53.82c0-3.522-2.805-6.531-6.819-7.318zm-3.774-9.454a9.622 9.622 0 00.344-1.08h.143a2.044 2.044 0 01-.489 1.08zm2.238-8.381v4.765a.67.67 0 01-.669.669h-.928v-6.1h.928a.67.67 0 01.667.662zm-17.38-10.504a10.219 10.219 0 016.434-2.377 9.536 9.536 0 016.162 2.943 14.844 14.844 0 013.761 6.941.928.928 0 00.287.459h-.9a.932.932 0 00-1.4-.521l-.01.005a10.965 10.965 0 01-4.649 1.059 13.8 13.8 0 01-8.633-3.134l-2.964-3.2a10.5 10.5 0 011.912-2.175zM9.618 33.581v.519h-.927a.67.67 0 01-.669-.669v-4.768a.67.67 0 01.669-.669h.928zm.718-8.094a.929.929 0 00-.328.149c-.147.064-.3.125-.446.181a9.332 9.332 0 01.78-3.629 19.074 19.074 0 001.94 2.054 10.4 10.4 0 01-1.552 1.046c-.13.075-.261.136-.394.2zm1.149 8.094V27l.129-.067a12.6 12.6 0 002.14-1.486 15.541 15.541 0 009.215 3.094 15.009 15.009 0 004.228-.7v5.743a7.807 7.807 0 01-1.206 4.176h-5.74a.934.934 0 000 1.867h4.1a7.851 7.851 0 01-12.87-6.043zm25.666 23.964h-5.165v-1.582a.934.934 0 10-1.867 0v1.586H8.908v-1.586a.934.934 0 10-1.867 0v1.586H1.867v-3.725c0-2.617 2.184-4.873 5.312-5.485l4.335-.849a5.774 5.774 0 001.523-.523 10.674 10.674 0 001.8 1.114.934.934 0 00.82-1.678 8.758 8.758 0 01-1.086-.632 4.143 4.143 0 001.022-2.7v-.511a9.7 9.7 0 007.834-.15v.661a4.143 4.143 0 001.021 2.7 8.783 8.783 0 01-4.938 1.521 8.919 8.919 0 01-1.074-.065.934.934 0 10-.226 1.854 10.775 10.775 0 001.3.079 10.648 10.648 0 006.47-2.192 5.773 5.773 0 001.525.524l4.335.849c3.128.612 5.312 2.868 5.312 5.485v3.725z"/>
                <path data-name="Path 38" d="M19.353 37.671a4.426 4.426 0 003.139-1.3.871.871 0 10-1.232-1.232 2.7 2.7 0 01-3.815 0 .871.871 0 10-1.232 1.232 4.426 4.426 0 003.14 1.3z"/>
            </g>
        </g>
    </g>
    <g data-name="Group 25">
        <g data-name="Group 24">
            <circle data-name="Ellipse 10" cx=".871" cy=".871" r=".871" fill="#fff" transform="translate(14.985 28.954)"/>
        </g>
    </g>
    <g data-name="Group 27">
        <g data-name="Group 26">
            <circle data-name="Ellipse 11" cx=".871" cy=".871" r=".871" fill="#fff" transform="translate(21.61 28.954)"/>
        </g>
    </g>
</svg>
