<svg xmlns="http://www.w3.org/2000/svg" width="53.706" height="59.461">
    <g fill="#fff">
        <path data-name="Path 17" d="M1.918 5.754h28.771v6.713a.958.958 0 00.959.959h6.713V21.1h1.919v-8.632a.957.957 0 00-.28-.679l-7.67-7.67a.958.958 0 00-.68-.283H5.754V1.918H42.2v21.1h1.918V.959A.958.958 0 0043.157 0H4.8a.958.958 0 00-.959.959v2.877H.959A.958.958 0 000 4.8v53.7a.958.958 0 00.959.959h32.608v-1.916H1.918zM32.607 7.11l4.4 4.4h-4.4zm0 0"/>
        <path data-name="Path 18" d="M52.747 28.771h-1.444a14.347 14.347 0 01-11.051-5.175l-.194-.233a.991.991 0 00-1.474 0l-.194.232a14.348 14.348 0 01-11.052 5.176h-1.444a.958.958 0 00-.959.959v15.532a10.572 10.572 0 005.316 9.16l8.594 4.911a.958.958 0 00.952 0l8.594-4.911a10.572 10.572 0 005.316-9.16V29.73a.958.958 0 00-.96-.959zm-.959 16.491a8.646 8.646 0 01-4.349 7.494l-8.118 4.641-8.118-4.64a8.65 8.65 0 01-4.349-7.5V30.69h.485a16.257 16.257 0 0011.982-5.247 16.256 16.256 0 0011.982 5.247h.485zm0 0"/>
        <path data-name="Path 19" d="M39.32 31.648a10.549 10.549 0 1010.551 10.549A10.562 10.562 0 0039.32 31.648zm0 19.181a8.631 8.631 0 118.631-8.631 8.641 8.641 0 01-8.631 8.631zm0 0"/>
        <path data-name="Path 20" d="M38.863 45.179l-1.742-1.742-1.356 1.356 2.877 2.877a.957.957 0 00.678.281.977.977 0 00.234-.029.962.962 0 00.685-.655l2.877-9.59-1.838-.551zm0 0"/>
        <path data-name="Path 21" d="M3.836 15.345h24.935v1.918H3.836zm0 0"/>
        <path data-name="Path 22" d="M3.836 19.181h24.935v1.918H3.836zm0 0"/>
        <path data-name="Path 23" d="M3.836 23.017h24.935v1.918H3.836zm0 0"/>
        <path data-name="Path 24" d="M3.836 26.853h19.181v1.918H3.836zm0 0"/>
        <path data-name="Path 25" d="M3.836 30.689h19.181v1.918H3.836zm0 0"/>
        <path data-name="Path 26" d="M3.836 34.526h19.181v1.918H3.836zm0 0"/>
        <path data-name="Path 27" d="M3.836 46.034h19.181v1.918H3.836zm0 0"/>
        <path data-name="Path 28" d="M3.836 49.87h19.181v1.918H3.836zm0 0"/>
        <path data-name="Path 29" d="M3.836 53.706h19.181v1.918H3.836zm0 0"/>
        <path data-name="Path 30" d="M4.795 7.672h1.918V9.59H4.795zm0 0"/>
        <path data-name="Path 31" d="M8.631 7.672h1.918V9.59H8.631zm0 0"/>
        <path data-name="Path 32" d="M12.468 7.672h1.918V9.59h-1.918zm0 0"/>
        <path data-name="Path 33" d="M16.304 7.672h12.468V9.59H16.304zm0 0"/>
    </g>
</svg>
