<svg xmlns="http://www.w3.org/2000/svg" width="30" height="28">
    <g data-name="Group 40" fill="#fff">
        <path data-name="Path 43" d="M29.14 13.65a.859.859 0 00-.86.866v7.874a3.871 3.871 0 01-3.852 3.879H5.571a3.871 3.871 0 01-3.852-3.879v-8a.86.86 0 10-1.719 0v8A5.6 5.6 0 005.571 28h18.858A5.6 5.6 0 0030 22.389v-7.874a.863.863 0 00-.86-.865z"/>
        <path data-name="Path 44" d="M14.391 21.127a.871.871 0 00.609.256.845.845 0 00.609-.256l5.5-5.5a.866.866 0 00-1.225-1.225l-4.02 4.027V.866a.866.866 0 10-1.731 0v17.561l-4.03-4.026a.866.866 0 10-1.225 1.225z"/>
    </g>
</svg>
