<svg xmlns="http://www.w3.org/2000/svg" width="59.448" height="59.461">
    <g data-name="033---Insurance" fill="#fff">
        <path d="M44.975 6.59L30.11.083a.991.991 0 00-.793 0L14.452 6.59a.991.991 0 00-.595.91v15.557a10.915 10.915 0 004.519 8.828l10.274 7.41a1.814 1.814 0 002.127 0l10.274-7.409a10.915 10.915 0 004.519-8.828V7.5a.991.991 0 00-.595-.91zm-1.387 16.468a8.928 8.928 0 01-3.7 7.221l-10.178 7.34-10.178-7.34a8.928 8.928 0 01-3.7-7.221V8.146l13.881-6.073 13.875 6.073z"/>
        <path data-name="Shape" d="M29.321 4.41l-10.9 4.773a.991.991 0 00-.6.908v12.97a6.937 6.937 0 002.874 5.613l8.438 6.087a.991.991 0 001.159 0l8.439-6.087a6.937 6.937 0 002.874-5.613v-12.97a.991.991 0 00-.595-.908L30.11 4.41a.991.991 0 00-.789 0zm10.3 6.328v12.323a4.955 4.955 0 01-2.049 4l-7.859 5.669-7.859-5.669a4.955 4.955 0 01-2.051-4V10.738l9.91-4.338z"/>
        <path data-name="Shape" d="M8.194 32.903L6.05 27.894a3.16 3.16 0 00-5.78 2.552l3.883 8.543a10.526 10.526 0 002.152 3.106l6.108 6.109a1.97 1.97 0 00-.537 1.348v7.928a1.982 1.982 0 001.981 1.985h10.9a1.982 1.982 0 001.982-1.982v-7.931a1.982 1.982 0 00-1.98-1.987v-1.84a10.384 10.384 0 00-2.176-6.491 7.135 7.135 0 00-3.3-2.409 19.6 19.6 0 01-5.674-3.641 4.559 4.559 0 00-5.415-.281zM24.759 57.48h-10.9v-7.928h10.9zm-3.72-17.008a8.409 8.409 0 011.737 5.253v1.84h-8.193l-6.877-6.871a8.572 8.572 0 01-1.749-2.529l-3.884-8.539a1.178 1.178 0 112.154-.951l2.217 5.17a11.7 11.7 0 002.5 3.692l4.527 4.528a.991.991 0 101.4-1.4l-4.526-4.53a9.775 9.775 0 01-1.222-1.486 2.577 2.577 0 013.21.054 21.128 21.128 0 006.323 4 5.206 5.206 0 012.383 1.769z"/>
        <path data-name="Shape" d="M21.785 52.525h-.991a.991.991 0 100 1.982h.991a.991.991 0 100-1.982z"/>
        <path data-name="Shape" d="M55.273 38.989l3.884-8.544a3.16 3.16 0 10-5.78-2.552l-2.139 4.99a4.571 4.571 0 00-5.422.3 19.6 19.6 0 01-5.674 3.641 7.135 7.135 0 00-3.3 2.409 10.384 10.384 0 00-2.172 6.494v1.838a1.982 1.982 0 00-1.984 1.986v7.928a1.982 1.982 0 001.982 1.986h10.9a1.982 1.982 0 001.982-1.982v-7.932a1.97 1.97 0 00-.537-1.348l6.108-6.109a10.525 10.525 0 002.152-3.105zm-9.7 18.49h-10.9v-7.928h10.9zm-.724-9.91H36.65v-1.844a8.409 8.409 0 011.736-5.252 5.209 5.209 0 012.378-1.767 21.119 21.119 0 006.324-4 2.577 2.577 0 013.216-.062 9.717 9.717 0 01-1.228 1.5l-4.526 4.521a.991.991 0 001.4 1.4l4.527-4.528a11.694 11.694 0 002.5-3.692l2.217-5.171a1.178 1.178 0 112.154.952l-3.882 8.544a8.571 8.571 0 01-1.749 2.524z"/>
        <path data-name="Shape" d="M38.632 52.525h-.991a.991.991 0 100 1.982h.991a.991.991 0 100-1.982z"/>
        <path data-name="Shape" d="M24.362 21.01a.991.991 0 10-1.186 1.583l3.964 2.973a.991.991 0 00.595.2 1.066 1.066 0 00.167-.014.991.991 0 00.657-.427l7.928-11.892a.991.991 0 00-1.649-1.1l-7.351 11.022z"/>
    </g>
</svg>
