<svg width="53" height="63" fill="none" xmlns="http://www.w3.org/2000/svg">
    <g clip-path="url(#clip0)" fill="#fff">
        <path d="M49.736 36.94c.285-.5.734-1.273 1.343-2.314.606-1.04.913-2.064.913-3.07 0-1.363-.878-2.369-2.633-3.014-1.757-.646-3.813-1.058-6.176-1.238a58.816 58.816 0 00-7.09-.108c-2.363.108-4.154.163-5.37.163a27.51 27.51 0 00-3.653 3.715 76.404 76.404 0 00-3.276 4.308 84.246 84.246 0 00-2.793 4.2 136.81 136.81 0 00-1.986 3.285c.5 0 .966-.018 1.397-.055.43-.035.894-.055 1.398-.055 2.433 0 4.457.09 6.069.27 1.612.18 2.9.377 3.868.593.968.215 1.664.412 2.093.593.43.18.679.27.751.27 0 .145-.162.215-.484.215H32.98c-.643 0-1.307-.018-1.986-.055a38.77 38.77 0 00-1.986-.055c-4.155 0-8.093.395-11.816 1.186a81.805 81.805 0 00-3.439 6.299c-1.073 2.191-1.899 4.218-2.47 6.084-.36 1.22-.18 1.904.536 2.046.716.145 1.575.215 2.578.215 1.36 0 2.9-.197 4.619-.592a45.187 45.187 0 005.263-1.562 60.88 60.88 0 005.21-2.153 41.351 41.351 0 004.564-2.477 77.06 77.06 0 001.612-.916c.43-.25.717-.378.859-.378h.107c0 .146-1.218 1.076-3.653 2.8a85.055 85.055 0 01-3.114 2.046c-1.36.86-2.938 1.724-4.727 2.584-1.791.861-3.76 1.617-5.909 2.262a22.668 22.668 0 01-6.553.968c-.36 0-.788-.017-1.29-.055a3.593 3.593 0 01-1.45-.43c-.466-.253-.878-.645-1.235-1.186-.36-.538-.537-1.308-.537-2.314 0-1.076.215-2.206.644-3.392.43-1.184.824-2.244 1.183-3.177-.072 0-.145.037-.214.107-.859 0-1.702-.215-2.526-.645-.823-.43-1.235-1.148-1.235-2.154 0-.933.27-1.759.806-2.477a7.188 7.188 0 012.041-1.831 12.76 12.76 0 012.74-1.238 35.845 35.845 0 012.9-.808c.499-.646 1.145-1.597 1.934-2.855a303.89 303.89 0 012.578-4.038c.93-1.436 1.879-2.907 2.847-4.415.966-1.509 1.879-2.87 2.74-4.093-.215 0-.931.163-2.149.485-1.218.323-2.65.791-4.297 1.401a72.906 72.906 0 00-5.263 2.207c-1.864.86-3.546 1.849-5.048 2.962-1.505 1.113-2.722 2.334-3.653 3.662-.931 1.329-1.325 2.712-1.183 4.146.07.43.27.825.591 1.183.322.36.662.645 1.021.86.357.216.679.396.966.538.284.146.429.253.429.323-1.934-.358-3.421-.95-4.457-1.776C.52 43.17 0 42.039 0 40.6c0-2.369.948-4.378 2.847-6.032 1.897-1.65 4.19-3.049 6.875-4.2a50.452 50.452 0 018.432-2.747c2.935-.68 5.443-1.2 7.519-1.56a81.635 81.635 0 002.148-1.617c.644-.5 1.575-.718 2.793-.645.858.072 1.29.305 1.29.7 0 .396.035.738.107 1.023h6.338c2.364 0 4.582.126 6.66.378 2.077.253 3.869.753 5.37 1.509 1.503.755 2.364 1.884 2.579 3.392.142 1.006-.073 2.064-.644 3.177-.574 1.113-1.433 2.102-2.578 2.962zM10.314 51.8c.356-.788.716-1.56 1.072-2.314.357-.753.717-1.523 1.074-2.316-1.218.502-2.186 1.04-2.9 1.616-.716.575-1.076 1.22-1.076 1.938 0 .43.198.718.592.861a3.55 3.55 0 001.237.215z"/>
        <path d="M42.98 10.852a.756.756 0 00-.413.103c-1.318.77-2.324 1.886-3.297 2.967-.384.425-.78.866-1.19 1.28l-.115.116.003-.163c.03-1.516.182-3 .326-4.247.015-.123-.005-.218-.06-.283-.064-.08-.167-.1-.242-.105a.757.757 0 00-.561.235c-.502.56-.95 1.193-1.387 1.804-.48.675-.976 1.373-1.55 1.986l-.085.092-.025-.125c-.354-1.798-.546-3.59-.674-4.948-.162-1.726-.546-3.507-1.178-5.451-.04-.123-.107-.185-.21-.19-.274-.015-.718.383-.803.57-.596 1.311-1.075 2.707-1.54 4.055-.586 1.707-1.192 3.473-2.043 5.091l-.055.103-.06-.1c-.317-.543-.539-1.146-.753-1.729-.25-.678-.51-1.378-.916-1.984a.373.373 0 00-.295-.185c-.32-.015-.706.38-.763.686a53.803 53.803 0 01-.607 2.787l-.032.16-.162-.293c-.901-1.616-1.834-3.29-3.601-4.153-.255-.125-.534-.055-.671.155a.544.544 0 00-.023.533c.749 1.654.956 2.875 1.155 4.055.038.228.078.456.118.683.165.9.354 2.264.536 3.585.24 1.736.54 3.885.694 4.138 1.83-.906 5.028-1.901 8.075-1.749.347.018.689.05 1.013.098 2.466.355 4.687 1.393 6.012 2.011.574.268.988.463 1.145.47.023 0 .028-.002.03-.002 1.355-3.813 2.765-7.768 4.492-11.555.065-.145.075-.265.025-.35-.053-.088-.165-.143-.312-.15zm-1.426 2.087c-1.27 2.957-2.394 6.049-3.347 8.716l-.027.08-.068-.045c-2.036-1.359-4.556-2.147-7.289-2.284a17.306 17.306 0 00-7.476 1.288l-.087.038-.003-.098c-.042-2.041-.716-5.401-1.21-7.853-.11-.54-.21-1.04-.295-1.478l-.005-.033.043-.052.032.002c.053.003.053.003.804 1.386.531.983 1.195 2.207 1.467 2.637.077.12.172.185.285.19.319.015.706-.423.77-.698.08-.34.163-.68.245-1.02.125-.516.25-1.034.37-1.552l.047-.2.077.19c.08.198.157.398.232.596.327.85.664 1.73 1.276 2.464.05.06.112.09.192.095.257.012.584-.258.676-.41 1.193-1.944 1.949-4.128 2.682-6.24.275-.79.56-1.608.861-2.401l.073-.188.052.195c.352 1.331.584 2.632.711 3.978.145 1.534.367 3.557.829 5.604.055.24.257.277.344.28a.56.56 0 00.387-.135c.96-.808 1.697-1.816 2.41-2.79.105-.145.213-.29.32-.435l.137-.185-.02.233a36.033 36.033 0 00-.162 3.855c.002.212.19.255.302.26a.662.662 0 00.427-.127c.73-.623 1.39-1.354 2.026-2.06.574-.637 1.17-1.295 1.82-1.876l.219-.197-.127.27z"/>
        <path d="M18.735 4.901c-.566-.028-1.177.31-1.27 1.133-.042.385.048.726.26.983.217.263.551.426.913.443.567.028 1.178-.31 1.27-1.13.043-.386-.047-.726-.26-.984a1.252 1.252 0 00-.913-.445z"/>
        <path d="M32.026 2.56c.564.027 1.175-.31 1.268-1.129v-.005-.005c.04-.383-.05-.723-.262-.978A1.263 1.263 0 0032.118 0c-.566-.027-1.178.31-1.27 1.133-.042.386.048.726.26.984.222.262.556.425.918.442z"/>
        <path d="M45.407 7.458a1.263 1.263 0 00-.914-.443c-.566-.028-1.178.31-1.268 1.13-.042.386.048.726.26.984.217.262.551.425.913.442.564.028 1.176-.31 1.268-1.128v-.005-.005c.045-.378-.045-.718-.26-.975z"/>
        <path d="M38.798 9.206c.33.018.684-.18.737-.658a.744.744 0 00-.153-.572.733.733 0 00-.529-.258c-.327-.018-.683.18-.736.658a.743.743 0 00.153.573c.127.155.319.247.528.257z"/>
        <path d="M25.768 7.368a.733.733 0 00-.53-.258c-.326-.018-.683.18-.736.658a.743.743 0 00.153.573c.127.152.319.247.529.257.326.018.683-.18.736-.657a.744.744 0 00-.152-.573z"/>
    </g>
    <defs>
        <clipPath id="clip0">
            <path fill="#fff" d="M0 0h53v63H0z"/>
        </clipPath>
    </defs>
</svg>
