<svg xmlns="http://www.w3.org/2000/svg" width="25" height="20">
    <g data-name="Group 6" fill="#fff">
        <path data-name="Path 3" d="M21.948 0H3.057A3.141 3.141 0 000 3.214v13.572A3.141 3.141 0 003.057 20h18.886A3.141 3.141 0 0025 16.786V3.219A3.138 3.138 0 0021.948 0zm1.66 16.786a1.707 1.707 0 01-1.66 1.746H3.057A1.707 1.707 0 011.4 16.786V3.219a1.707 1.707 0 011.66-1.746h18.883a1.707 1.707 0 011.66 1.746v13.567z"/>
        <path data-name="Path 4" d="M15.747 9.829L21.823 4a.783.783 0 00.051-1.05.666.666 0 00-.982-.055l-8.38 8.044-1.635-1.562c-.005-.006-.01-.011-.01-.016a1.052 1.052 0 00-.113-.1L4.102 2.894a.662.662 0 00-.982.06.778.778 0 00.057 1.05l6.148 5.878-6.123 6.131a.782.782 0 00-.031 1.05.689.689 0 00.509.236.671.671 0 00.473-.2l6.215-6.219 1.686 1.611a.659.659 0 00.925-.005l1.732-1.661 6.179 6.279a.664.664 0 00.982-.027.782.782 0 00-.026-1.05z"/>
    </g>
</svg>
