<svg xmlns="http://www.w3.org/2000/svg" width="24.73" height="27.027">
    <path data-name="Path 7" d="M24.731 9.539A9.565 9.565 0 0015.192 0H9.539A9.565 9.565 0 00.001 9.539v4.443a9.454 9.454 0 001.734 5.468 9.572 9.572 0 003.916 3.237v2.552c0 1.319.739 1.788 1.371 1.788a1.933 1.933 0 001.344-.663l2.843-2.843h3.982a9.565 9.565 0 009.539-9.539zm-9.539 12.4h-4.31a.791.791 0 00-.56.232l-3.075 3.073-.012.012v-3.1a.792.792 0 00-.51-.74 8.014 8.014 0 01-5.141-7.437v-4.44A7.981 7.981 0 019.54 1.583h5.652a7.981 7.981 0 017.956 7.956v4.443a7.965 7.965 0 01-7.955 7.955zm0 0" fill="#fff"/>
    <path data-name="Path 8" d="M14.471 12.949a.792.792 0 00-1.12 0l-.64.639-2.479-2.478.64-.639a.792.792 0 000-1.12l-3-3a.792.792 0 00-1.12 0l-2.1 2.1a2.916 2.916 0 000 4.118l6.6 6.6a2.919 2.919 0 004.118 0l2.1-2.1a.792.792 0 000-1.12zm-.22 5.1a1.335 1.335 0 01-1.879 0l-6.6-6.6a1.33 1.33 0 010-1.879l1.539-1.539L9.19 9.91l-.64.639a.792.792 0 000 1.12l3.6 3.6a.792.792 0 001.12 0l.64-.639 1.879 1.879zm0 0" fill="#fff"/>
    <path data-name="Path 9" d="M12.558 3.503a.792.792 0 000 1.584 6.785 6.785 0 016.784 6.784.792.792 0 101.584 0 8.368 8.368 0 00-8.368-8.368zm0 0" fill="#fff"/>
    <path data-name="Path 10" d="M15.949 11.874a.792.792 0 101.584 0 4.981 4.981 0 00-4.976-4.975.792.792 0 100 1.584 3.4 3.4 0 013.392 3.391zm0 0" fill="#fff"/>
</svg>
