<svg xmlns="http://www.w3.org/2000/svg" width="25.384" height="25.384">
    <path data-name="Path 11" d="M6.14 23.572a12.6 12.6 0 006.508 1.8 12.757 12.757 0 0012.736-12.685 12.687 12.687 0 10-23.572 6.557L0 25.383zM1.5 12.687a11.147 11.147 0 115.149 9.452l-.286-.183L2.2 23.185l1.228-4.164-.183-.286A11.2 11.2 0 011.5 12.687zm0 0" fill="#fff"/>
    <path data-name="Path 12" d="M6.178 10.349a11.209 11.209 0 008.989 8.989c1.477.281 3.644.324 4.7-.736l.59-.59a1.578 1.578 0 000-2.232l-2.361-2.361a1.578 1.578 0 00-2.232 0l-.59.59a1.05 1.05 0 01-1.4 0l-2.355-2.454-.011-.011a.928.928 0 010-1.31l.59-.59a1.577 1.577 0 000-2.232L9.737 5.051a1.58 1.58 0 00-2.232 0l-.59.59c-.845.846-1.127 2.648-.736 4.7zm1.787-3.652c.62-.606.587-.617.655-.617a.091.091 0 01.065.027c2.488 2.5 2.388 2.355 2.388 2.426a.089.089 0 01-.027.065l-.59.59a2.412 2.412 0 00-.006 3.407l2.357 2.456.011.011a2.536 2.536 0 003.512 0l.59-.59a.092.092 0 01.129 0c2.488 2.5 2.388 2.354 2.388 2.426a.089.089 0 01-.027.065l-.59.59c-.4.4-1.693.647-3.374.327a9.722 9.722 0 01-7.807-7.807c-.32-1.681-.078-2.97.326-3.374zm0 0" fill="#fff"/>
</svg>
