<svg xmlns="http://www.w3.org/2000/svg" xmlns:xlink="http://www.w3.org/1999/xlink" width="106.715" height="26.6" viewBox="0 0 106.715 26.6">
  <defs>
    <linearGradient id="linear-gradient" x1="0.476" y1="-0.255" x2="0.427" y2="1.732" gradientUnits="objectBoundingBox">
      <stop offset="0" stop-color="#ffe488"/>
      <stop offset="1" stop-color="#ffc400"/>
    </linearGradient>
  </defs>
  <path id="Path_53" data-name="Path 53" d="M.735-24.5h18.2l.35,6.93h-.63a12.452,12.452,0,0,0-3.08-4.847A7.334,7.334,0,0,0,10.85-23.73H9.625v10.815h1.19a3.576,3.576,0,0,0,2.765-1.242A7.15,7.15,0,0,0,15.155-17.5h.525V-7.14h-.595a8.248,8.248,0,0,0-1.7-3.745,3.845,3.845,0,0,0-2.922-1.12h-.84V-.77h1.33A8.156,8.156,0,0,0,16.433-2.7a9.77,9.77,0,0,0,3.1-4.935h.7L19.95,0H.735V-.77H2.8V-23.73H.735ZM22.47.35V-5.915h.42a8.394,8.394,0,0,0,2.45,4.27A5.99,5.99,0,0,0,29.19-.42q3.57,0,3.57-2.275a1.585,1.585,0,0,0-.875-1.47,11.788,11.788,0,0,0-3.5-1.19,13.7,13.7,0,0,1-3.99-1.68,4.422,4.422,0,0,1-1.925-3.99,5.787,5.787,0,0,1,1.68-4.358,6.165,6.165,0,0,1,4.48-1.627,8.712,8.712,0,0,1,3.535.8,2.907,2.907,0,0,0,1.015.28.81.81,0,0,0,.6-.245,4.035,4.035,0,0,0,.6-.91h.385v5.355h-.42q-1.785-4.55-5.53-4.55a4.217,4.217,0,0,0-2.45.578,1.729,1.729,0,0,0-.805,1.453,1.257,1.257,0,0,0,.245.822q.245.3.385.438a1.794,1.794,0,0,0,.455.3q.315.158.525.245t.648.227a5.179,5.179,0,0,0,.648.175,26.684,26.684,0,0,1,3.43,1.033A11.7,11.7,0,0,1,33.88-9.94a4.84,4.84,0,0,1,1.925,4.288,5.618,5.618,0,0,1-1.75,4.48A7.059,7.059,0,0,1,29.26.35a9.283,9.283,0,0,1-4.2-1.015,1.347,1.347,0,0,0-.665-.28q-.77,0-1.5,1.3ZM48.3,0V-.63h1.61L45.955-8.75l-.665.175V-.63H46.9V0H36.855V-.63H38.78V-25.62H36.715v-.63H45.29V-9.275l.56-.21,7.875-6.545h-3.29v-.63h6.9v.63H54.88L50.715-12.5,56.77-.63h1.26V0ZM68.985-6.9V-9.87a23.8,23.8,0,0,0-.368-4.953q-.368-1.557-1.7-1.557a1.756,1.756,0,0,0-1.243.438A2.684,2.684,0,0,0,65-14.49a26.627,26.627,0,0,0-.315,4.8v2.73a24.891,24.891,0,0,0,.228,4.585,7.836,7.836,0,0,0,.473,1.26,1.492,1.492,0,0,0,1.5.84A1.789,1.789,0,0,0,68.67-1.855,24.175,24.175,0,0,0,68.985-6.9ZM66.815.35Q62.44.35,60.2-1.89a8.692,8.692,0,0,1-2.24-6.422,8.418,8.418,0,0,1,2.4-6.44A9.446,9.446,0,0,1,67.1-17.01q4.34,0,6.475,2.082t2.135,6.353Q75.705.35,66.815.35Zm21.56-16.03A2.753,2.753,0,0,0,86.1-14a7.781,7.781,0,0,0-.98,3.99V-.63H87.6V0H76.685V-.63H78.61v-15.4H76.685v-.63H85.12v3.36a4.75,4.75,0,0,1,1.75-2.747,4.8,4.8,0,0,1,2.94-.962,3.854,3.854,0,0,1,2.678.927,3.346,3.346,0,0,1,1.033,2.625,3.929,3.929,0,0,1-.77,2.608,2.923,2.923,0,0,1-2.363.91,2.689,2.689,0,0,1-2.345-1.05,3.238,3.238,0,0,1-.192-2.9h1.26Q89.985-15.68,88.375-15.68ZM95.76-5.005V-16.03H93.835v-.63H95.76v-4.515l6.51-1.61v6.125h4.55v.63h-4.55v11.8A6.493,6.493,0,0,0,102.6-1.82a1.347,1.347,0,0,0,1.382.77,2.271,2.271,0,0,0,1.838-1.05,6.083,6.083,0,0,0,1.033-2.87l.6.07a6.788,6.788,0,0,1-1.54,3.832Q104.65.35,101.745.35A7.314,7.314,0,0,1,97.3-.805Q95.76-1.96,95.76-5.005Z" transform="translate(-0.735 26.25)" fill="url(#linear-gradient)"/>
</svg>
